<svg xmlns="http://www.w3.org/2000/svg" xmlns:xlink="http://www.w3.org/1999/xlink" width="200" height="76" fill="none" xmlns:v="https://vecta.io/nano"><g clip-path="url(#A)"><g fill="#172b54"><path d="M66.413 28.734h13.259v5.041H60.126V3.338h6.286v25.395zm23.527 5.041h-6.287V3.338h6.287v30.437zm12.074-12.448v12.45h-6.285V3.338h19.793v5.104h-13.507v7.842h12.015v5.042h-12.016zm35.418-.747h-12.015v8.154h14.132v5.041h-20.417V3.338h20.353v5.104h-14.066v7.22h12.014v4.919l-.001-.002zM71.143 44.294h-1.741l-.311-1.867h-4.732v3.548h3.671v2.365h-3.672v3.61h4.855l.311-1.867h1.741v4.046H60.126v-1.93l1.494-.187v-9.648l-1.556-.187v-1.929h11.079v4.046zm15.747 7.781l1.183.124v1.929h-5.602v-1.929h1.058l-2.49-3.672-1.992 3.548 1.245.124v1.929h-5.54v-1.929l1.369-.187 3.361-4.793-3.735-4.919-1.183-.124v-1.928h5.913v1.929l-1.183.124 2.49 3.61h.062l2.116-3.548-1.306-.124v-1.992h5.539v1.929l-1.369.187-3.425 4.855 3.548 4.919-.061-.064zm14.876-7.594l-.186-1.992h-2.926v9.523l1.681.187v1.929h-6.038v-1.929l1.681-.187v-9.523h-2.925l-.187 1.992h-1.868v-4.232h12.698v4.233h-1.93zm15.873-.187h-1.742l-.311-1.867h-4.732v3.548h3.672v2.365h-3.673v3.61h4.919l.312-1.867h1.741v4.046h-11.203v-1.93l1.494-.187v-9.648l-1.557-.187v-1.929h11.08v4.046z"/><use xlink:href="#B"/><path d="M142.037 51.763a6.41 6.41 0 0 0 2.801.498h.311c1.805 0 2.365-.373 2.365-1.681v-.435c0-.996-.373-1.37-1.741-1.681l-3.548-.809c-2.176-.622-2.8-1.369-2.8-3.548v-.249c0-2.676 1.431-3.797 4.919-3.797h.56a15.12 15.12 0 0 1 4.979.809v3.672h-2.176l-.311-1.929a5.79 5.79 0 0 0-2.428-.435h-.626c-1.556 0-2.116.373-2.116 1.556v.187c0 .809.312 1.183 1.183 1.432l4.108.934c1.992.498 2.676 1.369 2.676 3.361v.871c0 2.739-1.431 3.859-4.919 3.859h-.747a12.76 12.76 0 0 1-5.042-.995v-3.486h2.241l.311 1.867zm17.428-9.585l-1.556.187v9.648l1.556.187v1.929h-5.789V52.2l1.494-.187v-9.648l-1.557-.187v-1.929h5.851v1.929h.001zm8.652 12.199c-3.424 0-5.166-1.992-5.228-5.29v-3.673c0-3.423 1.741-5.415 5.228-5.415h1.867c3.424 0 5.104 2.054 5.104 5.415v3.61c0 3.361-1.741 5.354-5.104 5.354l-1.867-.001zm1.556-2.427c1.741 0 2.614-.809 2.676-2.676v-4.108c0-1.929-.87-2.739-2.676-2.739h-1.43c-1.805 0-2.614.996-2.614 2.739v4.046c0 1.929.871 2.676 2.614 2.676l1.43.062zm23.279-9.772l-1.556.187v11.826h-2.863l-6.038-9.398v7.282l1.245.124v1.929h-5.228v-1.929l1.556-.187v-9.648l-1.618-.187v-1.929h4.17l6.349 9.71v-7.656l-1.306-.124v-1.929h5.29v1.929h-.001zm7.033.747c.04.361-.003.726-.123 1.069a2.44 2.44 0 0 1-.573.911c-.257.257-.569.453-.911.573a2.43 2.43 0 0 1-1.069.123c-1.681 0-2.614-.996-2.614-2.676s.996-2.676 2.614-2.676a2.44 2.44 0 0 1 1.069.123 2.43 2.43 0 0 1 .911.573 2.44 2.44 0 0 1 .573.911c.12.343.163.708.123 1.069zm-4.855 0c0 1.494.809 2.241 2.177 2.241s2.24-.747 2.24-2.241-.809-2.241-2.24-2.241-2.177.809-2.177 2.241zm2.49-1.432a.82.82 0 0 1 .345.027c.113.033.216.09.305.167a.82.82 0 0 1 .208.277.81.81 0 0 1 .075.339v.124a.7.7 0 0 1-.089.448.71.71 0 0 1-.346.299 2.26 2.26 0 0 1 .249.498h.374v.498h-.934v-.187c-.059-.265-.164-.518-.311-.747h-.436v.435h.249v.498h-1.183v-.435h.312v-1.741h-.312v-.435l1.494-.065zm-.561 1.306h.498c.249 0 .374-.062.374-.311v-.187c0-.249-.125-.311-.374-.311h-.498v.809z"/></g><path d="M8.401 65.643H.311L0 68.694l1.183.124.311-1.929H3.67v7.282H2.053v1.121H6.66v-1.183H5.041v-7.282h2.177l.311 1.929 1.183-.124-.311-3.05v.062zm8.901 8.59h-1.057v-3.299c.037-.317.005-.639-.096-.942s-.267-.58-.487-.812a2.18 2.18 0 0 0-.785-.529c-.297-.116-.617-.166-.935-.145-.453-.022-.902.083-1.298.303s-.723.546-.943.942V65.02H9.336v.996h1.058v8.154H9.336v1.121h3.423v-.996h-1.058V71.37a1.93 1.93 0 0 1 .498-1.245 1.68 1.68 0 0 1 1.306-.56 1.37 1.37 0 0 1 1.058.435c.298.414.431.925.373 1.432v2.863H13.88v.996h3.423v-1.058h-.001zm5.539-1.183c-.08.331-.253.633-.498.871a1.62 1.62 0 0 1-1.183.373c-1.245 0-1.888-.705-1.929-2.116h4.545c.05-.287.071-.579.062-.871.019-.754-.247-1.488-.747-2.054-.266-.293-.594-.522-.96-.673s-.761-.218-1.156-.198a2.8 2.8 0 0 0-2.303.996 3.86 3.86 0 0 0-.809 2.552 3.3 3.3 0 0 0 .871 2.49c.623.582 1.451.895 2.303.871a3.05 3.05 0 0 0 1.992-.623 2.24 2.24 0 0 0 .871-1.494l-1.058-.249v.124zm-3.61-1.741c.044-.472.216-.924.498-1.306a1.43 1.43 0 0 1 1.245-.56 1.37 1.37 0 0 1 1.245.622 1.99 1.99 0 0 1 .311 1.245l-3.299-.001zm15.187-.56a2.99 2.99 0 0 0-1.306-.809l-1.37-.249-1.369-.435a1.12 1.12 0 0 1-.622-1.121c-.016-.204.022-.409.109-.595s.221-.345.389-.463c.388-.253.843-.383 1.306-.374h.871l.871.311.187 1.37 1.058-.124v-1.992a3.55 3.55 0 0 0-1.306-.623 5.91 5.91 0 0 0-1.681-.249 3.86 3.86 0 0 0-2.241.623c-.324.243-.58.566-.743.936s-.229.777-.191 1.18c-.044.535.111 1.067.435 1.494.3.345.687.603 1.12.747l1.369.374c.536.108 1.058.275 1.556.498.209.138.381.325.503.544a1.56 1.56 0 0 1 .194.715c.006.251-.048.499-.159.724s-.274.42-.476.568c-.478.255-1.014.384-1.556.373h-.932l-.934-.311v-1.183l-1.058-.124-.249 2.054c.411.295.877.507 1.369.623.588.161 1.195.245 1.805.249a4.11 4.11 0 0 0 2.552-.747c.331-.254.595-.585.769-.964s.252-.796.227-1.212c.038-.612-.163-1.214-.56-1.68l.061-.127zm6.535 2.054c-.166 1.079-.706 1.618-1.619 1.618a1.62 1.62 0 0 1-1.369-.623 2.8 2.8 0 0 1-.498-1.741 3.11 3.11 0 0 1 .435-1.741c.15-.222.355-.402.595-.522s.507-.176.775-.162a2.55 2.55 0 0 1 1.306.311l.249 1.121 1.058-.124-.249-1.741c-.339-.235-.719-.403-1.12-.498l-1.183-.124c-.45-.022-.898.062-1.309.246s-.773.462-1.056.812a3.86 3.86 0 0 0-.871 2.552 3.36 3.36 0 0 0 .871 2.49c.293.292.643.521 1.029.671a2.99 2.99 0 0 0 1.212.2c.391.032.784-.023 1.15-.163s.696-.361.966-.646c.406-.476.666-1.06.747-1.681l-1.121-.249.002-.004zm4.17-5.664v-1.556h-1.37v1.556h1.37zm1.12 7.158h-1.12v-5.603h-2.426v.996h1.121v4.606H42.76v.996h3.423v-.996l.061.001zm5.602-1.183c-.081.332-.253.633-.498.871a1.62 1.62 0 0 1-1.183.374c-1.245 0-1.888-.705-1.929-2.116h4.544a4.3 4.3 0 0 0 .062-.871 3.05 3.05 0 0 0-.747-2.054c-.267-.293-.594-.522-.96-.673s-.761-.218-1.156-.198a2.8 2.8 0 0 0-2.303.996 3.86 3.86 0 0 0-.809 2.552 3.3 3.3 0 0 0 .871 2.49c.306.291.668.518 1.064.668s.817.219 1.239.203a3.05 3.05 0 0 0 1.992-.623 2.24 2.24 0 0 0 .871-1.494l-1.057-.252v.127zm-3.61-1.741c.044-.473.217-.924.498-1.306a1.43 1.43 0 0 1 .551-.438c.217-.098.456-.14.694-.122a1.37 1.37 0 0 1 1.245.623 1.99 1.99 0 0 1 .311 1.245l-3.299-.001zm13.382 2.925H60.56v-3.299c-.001-.536-.18-1.057-.509-1.481a2.43 2.43 0 0 0-1.307-.862c-.519-.135-1.068-.095-1.562.115s-.904.578-1.166 1.045v-1.12h-2.427v.996h1.12v4.606h-1.058v.996h3.423v-.996h-1.058v-2.863a1.99 1.99 0 0 1 .498-1.245 1.68 1.68 0 0 1 1.306-.56c.188-.003.374.034.545.109s.326.186.451.326c.293.417.425.925.373 1.432v2.863h-.996v.934h3.423l.001-.996zm5.415-1.494c-.166 1.079-.706 1.618-1.618 1.618a1.62 1.62 0 0 1-1.37-.623 2.8 2.8 0 0 1-.498-1.741 3.11 3.11 0 0 1 .435-1.741c.15-.222.355-.402.595-.522s.507-.176.775-.162a2.55 2.55 0 0 1 1.306.311l.249 1.121 1.058-.125-.249-1.741a3.3 3.3 0 0 0-1.121-.498l-1.183-.124c-.45-.022-.898.062-1.309.246s-.773.462-1.056.812a3.86 3.86 0 0 0-.871 2.552 3.36 3.36 0 0 0 .181 1.334c.15.428.384.821.69 1.156a2.99 2.99 0 0 0 2.24.871c.391.032.784-.023 1.15-.163s.696-.361.966-.646c.406-.476.666-1.06.747-1.681l-1.121-.249.002-.004zm6.971.311c-.08.332-.253.633-.498.871a1.62 1.62 0 0 1-1.183.374c-1.245 0-1.888-.705-1.929-2.116h4.545a4.29 4.29 0 0 0 .062-.871 2.99 2.99 0 0 0-.747-2.054c-.266-.293-.594-.522-.96-.673s-.761-.218-1.156-.198a2.8 2.8 0 0 0-2.303.996 3.86 3.86 0 0 0-.809 2.552 3.3 3.3 0 0 0 .871 2.49c.623.582 1.451.895 2.303.871a3.05 3.05 0 0 0 1.992-.622 2.24 2.24 0 0 0 .871-1.494l-1.058-.249v.124zm-3.61-1.741c.044-.473.216-.924.498-1.306a1.43 1.43 0 0 1 1.245-.56 1.37 1.37 0 0 1 1.245.623 1.99 1.99 0 0 1 .311 1.245l-3.299-.001zm14.689-1.867a3.46 3.46 0 0 0-2.49-1.058 3.46 3.46 0 0 0-1.353.276c-.428.182-.814.448-1.137.783-.578.699-.887 1.582-.871 2.49-.037.892.275 1.763.871 2.427a3.11 3.11 0 0 0 1.083.719c.408.161.844.234 1.282.214a3.3 3.3 0 0 0 1.343-.205c.429-.161.819-.409 1.147-.729.314-.332.558-.723.719-1.15a3.42 3.42 0 0 0 .215-1.339c.026-.88-.26-1.74-.808-2.43l-.001.003zm-1.058 4.17a1.74 1.74 0 0 1-1.494.685 1.68 1.68 0 0 1-1.494-.685c-.338-.494-.512-1.082-.498-1.68a2.8 2.8 0 0 1 .498-1.741 1.74 1.74 0 0 1 1.494-.685c.27-.01.539.041.787.148s.468.27.645.474c.39.494.589 1.112.56 1.741a2.8 2.8 0 0 1-.498 1.741v.001zm4.233-8.029a2.55 2.55 0 0 0-.685 1.867v1.183h-.934v.996h.934V74.3h-1.058v.996h3.735V74.3h-1.37v-4.61h1.681v-.996H88.88v-1.306c0-.913.353-1.37 1.058-1.37l.685.124.311 1.12 1.058-.124-.249-1.618c-.239-.182-.515-.31-.809-.374l-.871-.124a2.3 2.3 0 0 0-1.741.685l-.064-.059zm6.784 5.104l1.058.124.249-1.058c.369-.174.775-.26 1.183-.249.58 0 .954.145 1.12.435.176.347.262.732.249 1.121v.498h-1.121c-.723-.012-1.441.115-2.116.373-.276.143-.511.352-.686.609s-.282.553-.313.862.016.621.136.907.309.538.551.733a2.55 2.55 0 0 0 1.369.435c.493.014.976-.139 1.37-.435.352-.248.648-.566.871-.934.041.871.457 1.306 1.245 1.306.328.003.651-.083.934-.249v-.747h-.374c-.332 0-.498-.207-.498-.623V70.81c.032-.324-.013-.65-.132-.953s-.309-.573-.553-.788a2.74 2.74 0 0 0-1.805-.56l-1.306.124a4.42 4.42 0 0 0-1.183.498l-.249 1.556-.001.064zm3.299 3.237c-.332.278-.75.432-1.183.435-.269-.004-.53-.091-.747-.249-.117-.117-.205-.259-.258-.416s-.067-.324-.042-.487.087-.319.182-.454.221-.246.367-.323c.394-.168.817-.252 1.245-.249h1.12v.373a1.68 1.68 0 0 1-.623 1.245l-.062.125zm16.868.124h-1.183v-7.287h1.183v-1.183h-3.672v1.183h1.183v2.988h-4.979v-2.988h1.183v-1.183h-3.734v1.183h1.183v7.282h-1.183v1.183h3.672v-1.183h-1.183v-3.174h4.981v3.174h-1.183v1.183h3.672v-1.183l.06.004zm5.79-.996a1.81 1.81 0 0 1-.498.871 1.62 1.62 0 0 1-1.183.374c-1.245 0-1.888-.705-1.929-2.116h4.543c.05-.287.071-.579.062-.871a2.98 2.98 0 0 0-.747-2.054 2.67 2.67 0 0 0-.96-.673 2.68 2.68 0 0 0-1.156-.198 2.8 2.8 0 0 0-2.303.996c-.565.727-.852 1.632-.809 2.552-.034.453.026.907.176 1.336s.386.821.695 1.154a3.17 3.17 0 0 0 1.063.668 3.18 3.18 0 0 0 1.24.203 3.05 3.05 0 0 0 1.991-.623 2.25 2.25 0 0 0 .871-1.494l-1.058-.249.002.124zm-3.61-1.741c.044-.473.216-.924.498-1.306a1.43 1.43 0 0 1 .551-.438c.218-.098.456-.14.694-.122a1.37 1.37 0 0 1 1.245.623c.238.369.347.807.311 1.245l-3.299-.001zm6.037-.623l1.058.124.249-1.058a2.62 2.62 0 0 1 1.183-.249c.581 0 .954.145 1.121.435.176.346.262.732.249 1.12v.498h-1.121a5.66 5.66 0 0 0-2.116.373 1.87 1.87 0 0 0-.998 1.472c-.031.309.015.621.135.907a1.87 1.87 0 0 0 .552.733 2.55 2.55 0 0 0 1.369.435 2.18 2.18 0 0 0 1.37-.435 3.06 3.06 0 0 0 .871-.934c.041.871.456 1.306 1.245 1.306.328.003.65-.083.933-.249v-.747h-.373c-.332 0-.498-.208-.498-.623V70.81c.022-.314-.028-.629-.147-.92a2.06 2.06 0 0 0-.538-.76 2.74 2.74 0 0 0-1.805-.56l-1.306.124a4.43 4.43 0 0 0-1.183.498l-.249 1.556-.001.005zm3.299 3.237c-.332.278-.75.432-1.183.435a1.31 1.31 0 0 1-.747-.249c-.117-.117-.205-.259-.257-.416a1.06 1.06 0 0 1-.043-.487 1.07 1.07 0 0 1 .182-.454 1.06 1.06 0 0 1 .367-.323 3.12 3.12 0 0 1 1.245-.249h1.121v.373c-.009.24-.069.475-.177.69a1.67 1.67 0 0 1-.446.555l-.062.125zm7.033.311H132.7v-9.217h-2.427v.996h1.058v8.154h-1.058v1.058h3.423v-.996l.062.005zm4.607-1.183a1.43 1.43 0 0 1-.436.996 1.18 1.18 0 0 1-.622.187c-.664 0-.996-.394-.996-1.183v-3.423h2.552v-.996h-2.552v-2.116h-1.306v2.116h-.997v.996h.996v3.672c-.02.284.02.569.116.837s.248.513.444.719a2.18 2.18 0 0 0 .752.446c.278.096.573.135.867.114 1.286 0 2.033-.664 2.24-1.992l-.934-.311-.124-.063zm9.46 1.183h-1.058v-3.299c.038-.317.005-.639-.096-.942a2.19 2.19 0 0 0-.486-.812c-.22-.232-.488-.412-.786-.529s-.616-.166-.935-.145a2.43 2.43 0 0 0-1.298.303c-.396.22-.722.547-.942.942v-4.736h-2.365v.996h1.058v8.154h-1.058v1.058h3.423v-.996h-1.058V71.37c.011-.461.188-.903.498-1.245.163-.183.365-.328.59-.425s.47-.143.716-.135c.197-.008.394.027.576.102s.347.189.482.334a2.05 2.05 0 0 1 .373 1.432v2.863h-1.058v.996h3.423v-.996l.001.006zm3.112-7.158v-1.556h-1.369v1.556h1.369zm1.121 7.158H151v-5.608h-2.426v.996h1.12v4.606h-1.058v.996h3.423v-.996l-.001.006zm5.602-1.183a1.81 1.81 0 0 1-.498.871 1.62 1.62 0 0 1-.555.305c-.203.064-.416.087-.628.069-1.245 0-1.888-.705-1.93-2.116h4.544c.051-.287.071-.579.063-.871a2.99 2.99 0 0 0-.747-2.054c-.267-.292-.595-.522-.961-.673s-.76-.218-1.155-.198c-.435-.024-.87.053-1.27.226s-.753.437-1.033.77a3.86 3.86 0 0 0-.81 2.552 3.31 3.31 0 0 0 .871 2.49c.307.291.668.518 1.064.668a3.17 3.17 0 0 0 1.239.203 3.05 3.05 0 0 0 1.991-.623 2.25 2.25 0 0 0 .871-1.494l-1.058-.249.002.124zm-3.611-1.741c.045-.472.217-.924.499-1.306a1.43 1.43 0 0 1 1.245-.56 1.37 1.37 0 0 1 1.245.623c.238.369.347.807.311 1.245l-3.3-.001zm8.341-2.427c-.283.253-.497.575-.622.934v-1.245h-2.303v1.058h1.12v4.606h-1.058v.996h3.797v-.996h-1.43v-3.112a1.68 1.68 0 0 1 .312-1.121c.099-.137.23-.248.382-.324s.319-.114.488-.112l.498.124.249 1.121.996-.124-.249-1.867a1.99 1.99 0 0 0-1.182-.373 1.43 1.43 0 0 0-.996.373l-.002.061zm14.131 3.166l-1.183-.124-.311 2.116h-3.361v-7.282h1.556v-1.183h-4.046v1.183h1.183v7.282h-1.183v1.183h6.972l.311-3.174.062-.001zm3.05-4.98V65.58h-1.37v1.556h1.37zm1.12 7.158h-1.058v-5.601h-2.428v.996h1.12v4.606h-1.058v.996h3.423v-.996l.001-.001zm2.552-8.59c-.233.25-.414.543-.531.864s-.17.662-.154 1.003v1.183h-.933v.934h.933v4.606H181.5v.996h3.735v-.996h-1.37v-4.605h1.681v-.996h-1.681v-1.306c0-.913.353-1.37 1.059-1.37l.684.124.312 1.12 1.058-.124-.249-1.618a2.06 2.06 0 0 0-.809-.374l-.871-.124a2.3 2.3 0 0 0-1.741.685l-.065-.002zm7.843 7.469a1.8 1.8 0 0 1-.498.871 1.62 1.62 0 0 1-1.183.374c-1.245 0-1.888-.705-1.929-2.116h4.542c.051-.287.072-.579.063-.871a2.99 2.99 0 0 0-.747-2.054c-.267-.293-.595-.522-.961-.673s-.76-.218-1.155-.198c-.435-.025-.87.053-1.27.226s-.753.437-1.033.77a3.86 3.86 0 0 0-.81 2.552 3.31 3.31 0 0 0 .871 2.49c.623.582 1.451.895 2.303.871.716.033 1.421-.187 1.992-.623a2.26 2.26 0 0 0 .585-.66 2.25 2.25 0 0 0 .285-.834l-1.058-.249.003.124zm-3.61-1.741c.044-.472.216-.924.498-1.306a1.43 1.43 0 0 1 .551-.438c.218-.098.456-.14.694-.122a1.37 1.37 0 0 1 1.245.623 1.99 1.99 0 0 1 .311 1.245l-3.299-.001zm7.594-2.054a2.02 2.02 0 0 1-.787-.171 2.03 2.03 0 0 1-.658-.465c-.185-.197-.33-.43-.424-.684s-.136-.525-.123-.796a2.06 2.06 0 0 1 .162-.801c.107-.253.264-.483.461-.674s.432-.341.688-.441a2.05 2.05 0 0 1 .805-.138 2.09 2.09 0 0 1 1.897 2.174 2.09 2.09 0 0 1-2.084 1.996h.063zm0-.373c.221.006.441-.035.645-.121a1.55 1.55 0 0 0 .537-.377 1.65 1.65 0 0 0 .461-.834c.068-.317.041-.647-.077-.949a1.65 1.65 0 0 0-1.493-1.047 1.65 1.65 0 0 0-1.545.967c-.134.295-.178.624-.127.944a1.65 1.65 0 0 0 .416.856 1.56 1.56 0 0 0 .502.398c.192.097.403.152.619.162h.062zm-.934-.934h.249v-1.681h-.249v-.311h1.058c.58 0 .871.228.871.685.003.146-.046.288-.137.401s-.219.192-.361.221l.373.685h.311v.311h-.56l-.435-.934h-.374v.623h.312v.311h-.934l-.124-.311zm.996-.871c.332 0 .498-.124.498-.374s-.166-.373-.498-.373h-.311v.747h.311z" fill="#00a4b3"/><g fill="#172b54"><path d="M25.706 50.705l-6.411 3.672 4.606 2.676a3.55 3.55 0 0 0 3.548 0l4.606-2.676-6.349-3.672zM23.901.475l-4.606 2.614 6.349 3.672 6.411-3.672L27.449.475a3.55 3.55 0 0 0-3.548 0zM7.842 30.165L1.369 33.9l6.473 3.735 6.535-3.735-6.535-3.735zm35.665-10.332l-6.535 3.797 6.535 3.734 6.473-3.735-6.473-3.796zm1.183 19.918v7.345l4.606-2.676a3.55 3.55 0 0 0 1.805-3.112v-5.229l-6.411 3.672zM.311 16.16v5.291l6.349-3.672v-7.345l-4.607 2.614c-.539.319-.984.775-1.29 1.321a3.55 3.55 0 0 0-.451 1.791zm17.677 28.694v7.531l6.473-3.735v-7.53l-6.473 3.735zm8.9-35.976v7.469l6.473-3.735V5.081l-6.473 3.797zm17.802 1.556v7.345l6.349 3.672V16.16a3.55 3.55 0 0 0-.479-1.802 3.54 3.54 0 0 0-1.326-1.31l-4.544-2.614zM.311 36.078v5.29a3.55 3.55 0 0 0 1.805 3.111l4.606 2.676v-7.406L.311 36.078zm35.478-.124v7.531l6.535 3.735v-7.469l-6.535-3.797zM9.087 10.247v7.531l6.473 3.735v-7.531l-6.473-3.735z"/></g><g fill="#00a4b3"><path d="M7.842 19.833L1.369 23.63l6.473 3.734 6.535-3.735-6.535-3.796zm35.665 10.332L36.972 33.9l6.535 3.735L49.98 33.9l-6.473-3.735zm-34.42 9.586v7.469l6.473-3.735v-7.531l-6.473 3.797zm26.702-25.769v7.531l6.535-3.735v-7.531l-6.535 3.735zm-8.9 27.138v7.531l6.473 3.735v-7.531l-6.473-3.735zM17.988 5.081v7.531l6.473 3.735V8.878l-6.473-3.797z"/></g><g fill="#6a86b8"><path d="M51.101 31.721v-5.975l-5.166 2.988 5.166 2.988zM15.56 52.261v-5.975l-5.166 2.988 5.166 2.988zm25.396-2.987l-5.166-2.988v5.975l5.166-2.988zM.311 31.721l5.166-2.988-5.166-2.988v5.975zM10.394 8.256l5.166 2.988V5.268l-5.166 2.988zm25.395-2.988v5.975l5.166-2.988-5.166-2.988zm-2.428 36.848v-6.162l-5.29 3.112 5.29 3.05zm2.428-10.333l5.29-3.05-5.29-3.05v6.1zm-2.428-16.369l-5.29 3.05 5.29 3.05v-6.1zM10.27 28.734l5.291 3.05v-6.1l-5.29 3.05zm7.718 13.382l5.29-3.05-5.29-3.112v6.162zm0-26.702v6.1l5.29-3.05-5.29-3.05z"/></g></g><defs><clipPath id="A"><path fill="#fff" d="M0 0h200v75.549H0z"/></clipPath><path id="B" d="M135.751 42.178l-1.556.187v11.826h-2.863l-6.038-9.398v7.282l1.245.124v1.929h-5.228v-1.929l1.556-.187v-9.648l-1.618-.187v-1.929h4.17l6.349 9.71v-7.656l-1.306-.124v-1.929h5.29v1.929h-.001z"/></defs></svg>