<?xml version="1.0" encoding="utf-8"?>
<!-- Generator: Adobe Illustrator 25.3.1, SVG Export Plug-In . SVG Version: 6.00 Build 0)  -->
<svg version="1.1" id="Layer_1" xmlns="http://www.w3.org/2000/svg" xmlns:xlink="http://www.w3.org/1999/xlink" x="0px" y="0px"
	 viewBox="0 0 717.9 216.9" style="enable-background:new 0 0 717.9 216.9;" xml:space="preserve">
<style type="text/css">
	.st0{fill:#FFFFFF;}
	.st1{fill:#2E008B;}
	.st2{fill:#5DA528;}
	.st3{clip-path:url(#SVGID_2_);}
	.st4{fill:url(#SVGID_3_);}
</style>
<g id="Layer_2_1_">
	<g id="Layer_1-2">
		<polygon class="st0" points="0,163.2 0,169.2 64.6,158.5 64.6,149.1 		"/>
		<path class="st1" d="M654.6,172.9c5.1-10.3,7.7-21.6,7.6-33.1V8.1h-67.1v120.8c0,12.6-5.4,23.5-21.4,23.5s-21.4-10.9-21.4-23.5
			V8.1h-67.1v120.8c0.1,4.4-0.8,8.8-2.5,12.8C540.5,149.1,597.9,159.5,654.6,172.9"/>
		<path class="st1" d="M64.6,149.8V95.3c0-17.6,8.8-28.5,23-28.5s23.1,10.9,23.1,28.5v46.7c42.2-6.1,84.7-10,127.4-11.6
			c-3.1-6.3-4.7-13.3-4.6-20.3c0-23.5,17.2-43.2,40.7-43.2s39,19.8,40.7,43.2c0.7,9.5-1.3,14.5-4.2,19.4
			c41.1,0.5,85.5,2.9,132.9,7.8c-0.6-2.7-0.9-5.5-0.9-8.3V8.1h-67.1V79C360.5,33.6,321,3,274.1,3C228.7,3,188,34.5,174,77.6
			C167.8,33.9,138.1,3,87.6,3C30.6,3,0,42.5,0,95.3v69.4C16.6,160.1,38.2,154.8,64.6,149.8"/>
		<path class="st1" d="M717.9,20.1c0.1,11.2-9,20.3-20.1,20.3c-11.2,0.1-20.3-9-20.3-20.1c-0.1-11.2,9-20.3,20.1-20.3
			c0,0,0.1,0,0.1,0C708.9,0,717.9,9,717.9,20.1 M680.5,20.2c0,9.5,7.7,17.2,17.2,17.2s17.2-7.7,17.2-17.2c0-9.5-7.7-17.2-17.2-17.2
			C688.3,3,680.5,10.6,680.5,20.2C680.5,20.1,680.5,20.1,680.5,20.2 M707.8,31.5h-3.4L698,21.1h-5v10.4h-2.9V8.8h10
			c1.9,0,3.8,0,5.5,1.2c1.7,1.1,2.6,2.9,2.6,4.9c0,4.5-3.2,6.1-7.1,6.2L707.8,31.5z M697.2,18.9c3.2,0,8.1,0.5,8.1-4.1
			c0-3.4-3-3.8-5.8-3.8H693v8L697.2,18.9z"/>
		<path class="st2" d="M0,168.6v43.3h64.6v-54.1C42.8,160.8,21.2,164.4,0,168.6"/>
		<path class="st2" d="M110.7,152.3v59.6h64.6v-64.7C153.8,148.4,132.2,150.1,110.7,152.3"/>
		<path class="st2" d="M308,144.2c-6.8,5.6-21,10.5-33.4,10.5c-15.6,0-27.6-4.9-34.3-10.4c-24.3,0.4-39.9,1.2-64.5,2.7
			c15.3,40.6,54.6,69.8,98.3,69.8c44,0,83.6-29.6,98.7-70.7C348.8,145.2,333.2,144.5,308,144.2"/>
		<polygon class="st0" points="353.1,110.8 305.2,118.1 344.5,145 298.9,131.1 323.1,173.1 287.6,140.1 291.2,188.4 273.5,143.3 
			255.8,188.4 259.4,140.1 223.8,173 248.1,131.1 201.8,145.4 241.8,118.1 193.9,110.8 241.8,103.5 201.8,76.2 248.1,90.5 
			223.9,48.6 259.4,81.5 255.8,33.2 273.5,78.3 291.2,33.2 287.6,81.5 323.2,48.6 298.9,90.6 345.2,76.2 305.2,103.5 		"/>
		<g>
			<defs>
				<polygon id="SVGID_1_" points="273.5,89.6 262,60.2 264.3,91.7 241.1,70.2 256.9,97.6 226.8,88.3 252.8,106.1 221.6,110.8 
					252.8,115.5 226.8,133.3 256.9,124 241.1,151.4 264.3,129.9 262,161.4 273.5,132 285,161.4 282.7,129.9 305.9,151.4 290.1,124 
					320.3,133.3 294.2,115.5 325.4,110.8 294.2,106.1 320.3,88.3 290.1,97.6 305.9,70.2 282.7,91.7 285,60.2 				"/>
			</defs>
			<clipPath id="SVGID_2_">
				<use xlink:href="#SVGID_1_"  style="overflow:visible;"/>
			</clipPath>
			<g class="st3">
				
					<radialGradient id="SVGID_3_" cx="114.9798" cy="1.8173" r="7.05" gradientTransform="matrix(7.27 0 0 7.27 -562.59 99.39)" gradientUnits="userSpaceOnUse">
					<stop  offset="0" style="stop-color:#FAE200"/>
					<stop  offset="2.000000e-02" style="stop-color:#FAE200"/>
					<stop  offset="0.12" style="stop-color:#FADE01"/>
					<stop  offset="0.24" style="stop-color:#F9D005"/>
					<stop  offset="0.36" style="stop-color:#F8BA0B"/>
					<stop  offset="0.48" style="stop-color:#F69C14"/>
					<stop  offset="0.61" style="stop-color:#F4751F"/>
					<stop  offset="0.63" style="stop-color:#F36C21"/>
					<stop  offset="1" style="stop-color:#F36C21"/>
				</radialGradient>
				<rect x="221.6" y="60.2" class="st4" width="103.8" height="101.2"/>
			</g>
		</g>
	</g>
</g>
<path class="st2" d="M375.7,146.3c3.6,43.6,42.5,70.6,85.2,70.6c21.4,0,43.2-11.8,57.9-28.5c14.7,16.8,36.5,28.5,57.8,28.5
	c32.7,0,63.2-15.9,77.3-42.8C561.2,158.5,434.9,148.3,375.7,146.3z"/>
</svg>
